<svg width="662" height="346" viewBox="0 0 662 346" fill="none" xmlns="http://www.w3.org/2000/svg">
<path fill-rule="evenodd" clip-rule="evenodd" d="M574.458 1H87.5421C74.2935 1 63 11.3158 63 24.0932V328H599V24.0932C599 11.3149 587.747 1 574.458 1Z" fill="#A9C2FF" stroke="#6A99F5" stroke-width="2" stroke-linecap="square"/>
<path d="M323 17C325.209 17 327 15.2091 327 13C327 10.7909 325.209 9 323 9C320.791 9 319 10.7909 319 13C319 15.2091 320.791 17 323 17Z" stroke="#6A99F5" stroke-width="2"/>
<path d="M661 336.546V336.543V329.253C661 328.752 660.766 328.351 660.498 328.072C660.236 327.798 659.903 327.597 659.569 327.451C658.899 327.156 658.043 327 657.149 327H4.84742C3.95391 327 3.09858 327.156 2.42901 327.451C2.09555 327.598 1.76336 327.798 1.50085 328.072C1.23326 328.352 1 328.752 1 329.253V336.267C1 336.768 1.26032 337.155 1.48643 337.405C1.72407 337.667 2.03473 337.901 2.37193 338.11C3.0508 338.533 4.00516 338.962 5.18026 339.388C7.54259 340.246 10.9619 341.152 15.2651 341.98C23.8801 343.638 36.1338 345 50.7608 345H611.236C628.069 345 640.327 343.587 648.401 341.935C652.435 341.109 655.446 340.219 657.471 339.405C658.478 339 659.277 338.599 659.843 338.213C660.124 338.021 660.383 337.809 660.583 337.573C660.769 337.353 660.998 337.001 661 336.546Z" fill="#A9C2FF" stroke="#6A99F5" stroke-width="2"/>
<path d="M3 336H659" stroke="#6A99F5" stroke-width="2" stroke-linecap="square"/>
<path d="M405 328V329.556C405 330.665 400.696 331 397.437 331H263.763C260.335 331 256 330.666 256 329.556V328" stroke="#6A99F5" stroke-width="2"/>
</svg>
