<svg xmlns="http://www.w3.org/2000/svg" viewBox="0 0 617 158" width="200" height="51">
	<style>
		tspan { white-space:pre }
		.txt0 { font-size: 134px;fill: #000000;font-family: "' Minion Pro" } 
		.txt1 { font-size: 22px;fill: #000000;font-weight: 500;font-family: "' Minion Pro" } 
		.txt2 { font-size: 74px;fill: #000000;font-weight: bold;font-family: "' Minion Pro" } 
		.shp3 { fill: none;stroke: #6fbfde;stroke-width: 1.417 } 
		.txt4 { font-size: 398px;fill: #000000;font-family: "' Minion Pro" } 
		.txt5 { font-size: 64px;fill: #000000;font-family: "' Minion Pro" } 
		.txt6 { font-size: 220px;fill: #000000;font-weight: bold;font-family: "' Minion Pro" } 
		.shp7 { fill: none;stroke: #6fbfde;stroke-width: 2.835 } 
		.shp8 { fill: #6fbfde } 
		.txt9 { font-size: 341px;fill: #000000;font-family: "' Minion Pro" } 
		.txt10 { font-size: 55px;fill: #000000;font-weight: 500;font-family: "' Minion Pro" } 
		.txt11 { font-size: 188px;fill: #000000;font-weight: bold;font-family: "' Minion Pro" } 
		.shp12 { fill: none;stroke: #0d0e0f;stroke-width: 1.417 } 
		.txt13 { font-size: 37px;fill: #000000;font-weight: bold;font-family: "' Minion Pro" } 
		.txt14 { font-size: 37px;fill: #000000;font-family: "' Minion Pro" } 
		.txt15 { font-size: 37px;fill: #000000;font-weight: 500;font-family: "' Minion Pro" } 
		.shp16 { fill: none;stroke: #0d0e0f;stroke-width: 5.669 } 
		.txt17 { font-size: 37px;fill: #6fbfde;font-weight: bold;font-family: "' Minion Pro" } 
		.txt18 { font-size: 80px;fill: #000000;font-family: "' Minion Pro" } 
		.txt19 { font-size: 33px;fill: #000000;font-weight: 500;font-family: "' Minion Pro" } 
		.txt20 { font-size: 68px;fill: #000000;font-weight: bold;font-family: "' Minion Pro" } 
		.txt21 { font-size: 130px;fill: #000000;font-family: "' Minion Pro" } 
		.txt22 { font-size: 21px;fill: #000000;font-weight: 500;font-family: "' Minion Pro" } 
		.txt23 { font-size: 72px;fill: #000000;font-weight: bold;font-family: "' Minion Pro" } 
		.txt24 { font-size: 60px;fill: #000000;font-weight: bold;font-family: "' Minion Pro" } 
		.txt25 { font-size: 60px;fill: #000000;font-family: "' Minion Pro" } 
		.txt26 { font-size: 60px;fill: #6fbfde;font-weight: bold;font-family: "' Minion Pro" } 
		.shp27 { fill: #000000 } 
	</style>
	<text id="R" style="transform: matrix(1,0,0,1,-1024.817,-507.999)" >
		<tspan x="0" y="0" class="txt0">R</tspan>
	</text>
	<text id="CUSTOM HOOK" style="transform: matrix(1,0,0,1.25,-938.068,-572.308)" >
		<tspan x="0" y="0" class="txt1">CUSTOM HOOK</tspan>
	</text>
	<text id="EACT" style="transform: matrix(1,0,0,1.1,-936.77,-507.971)" >
		<tspan x="0" y="0" class="txt2">EACT</tspan>
	</text>
	<g id="Layer">
		<path id="Layer" class="shp3" d="M-763.8 -574.8C-772.87 -574.8 -780.2 -577.62 -780.2 -581.1C-780.2 -584.58 -772.87 -587.4 -763.8 -587.4C-754.73 -587.4 -747.4 -584.58 -747.4 -581.1C-747.4 -577.62 -754.73 -574.8 -763.8 -574.8Z" />
		<path id="Layer" class="shp3" d="M-755.56 -566.89C-758.58 -565.15 -764.68 -570.09 -769.22 -577.94C-773.75 -585.8 -774.98 -593.55 -771.96 -595.3C-768.95 -597.04 -762.84 -592.1 -758.31 -584.24C-753.77 -576.39 -752.55 -568.63 -755.56 -566.89Z" />
		<path id="Layer" class="shp3" d="M-758.29 -577.98C-762.83 -570.13 -768.93 -565.19 -771.95 -566.93C-774.97 -568.67 -773.74 -576.43 -769.21 -584.28C-764.67 -592.14 -758.57 -597.08 -755.55 -595.33C-752.53 -593.59 -753.76 -585.84 -758.29 -577.98Z" />
	</g>
	<text id="R" style="transform: matrix(1,0,0,1,-1057.556,197.445)" >
		<tspan x="0" y="0" class="txt4">R</tspan>
	</text>
	<text id="CUSTOM HOOK" style="transform: matrix(1,0,0,1.25,-793.103,7.591)" >
		<tspan x="0" y="0" class="txt5">CUSTOM HOOK</tspan>
	</text>
	<text id="EACT" style="transform: matrix(1,0,0,1.1,-796.251,201.528)" >
		<tspan x="0" y="0" class="txt6">EACT</tspan>
	</text>
	<g id="Layer">
		<path id="Layer" class="shp7" d="M-282.9 -1C-309.78 -1 -331.5 -9.31 -331.5 -19.6C-331.5 -29.89 -309.78 -38.2 -282.9 -38.2C-256.02 -38.2 -234.3 -29.89 -234.3 -19.6C-234.3 -9.31 -256.02 -1 -282.9 -1Z" />
		<path id="Layer" class="shp7" d="M-258.58 22.48C-267.49 27.62 -285.55 12.97 -298.99 -10.31C-312.43 -33.58 -316.09 -56.55 -307.18 -61.7C-298.27 -66.84 -280.21 -52.18 -266.77 -28.91C-253.34 -5.63 -249.67 17.34 -258.58 22.48Z" />
		<path id="Layer" class="shp7" d="M-266.77 -10.32C-280.21 12.96 -298.27 27.61 -307.18 22.47C-316.08 17.33 -312.42 -5.64 -298.98 -28.92C-285.55 -52.19 -267.48 -66.85 -258.58 -61.7C-249.67 -56.56 -253.33 -33.59 -266.77 -10.32Z" />
	</g>
	<g id="Layer">
		<path id="Layer" class="shp7" d="M783.4 -418C769.8 -418 758.8 -422.2 758.8 -427.4C758.8 -432.6 769.8 -436.8 783.4 -436.8C797 -436.8 808 -432.6 808 -427.4C808 -422.2 797 -418 783.4 -418Z" />
		<path id="Layer" class="shp7" d="M795.7 -406.1C791.19 -403.5 782.06 -410.92 775.26 -422.7C768.45 -434.48 766.59 -446.11 771.1 -448.71C775.6 -451.3 784.73 -443.88 791.54 -432.1C798.34 -420.32 800.2 -408.7 795.7 -406.1Z" />
		<path id="Layer" class="shp7" d="M791.58 -422.7C784.78 -410.92 775.64 -403.5 771.14 -406.1C766.64 -408.7 768.5 -420.32 775.3 -432.1C782.1 -443.88 791.24 -451.3 795.74 -448.7C800.24 -446.1 798.38 -434.48 791.58 -422.7Z" />
	</g>
	<g id="Layer">
		<g id="Layer">
			<path id="Layer" fill-rule="evenodd" class="shp8" d="M-99.2 114.1C-152.2 114.1 -193.7 97.5 -193.7 76.3C-193.7 55.1 -152.2 38.5 -99.2 38.5C-46.2 38.5 -4.7 55.1 -4.7 76.3C-4.7 97.5 -46.2 114.1 -99.2 114.1ZM-99.2 44.1C-152.3 44.1 -188 60.7 -188 76.3C-188 91.8 -152.3 108.5 -99.2 108.5C-46.1 108.5 -10.4 91.9 -10.4 76.3C-10.4 60.7 -46.1 44.1 -99.2 44.1Z" />
		</g>
		<g id="Layer">
			<path id="Layer" fill-rule="evenodd" class="shp8" d="M-60.9 160.4C-80.3 160.4 -109.3 134.5 -132 95.2C-144.4 73.7 -152.9 51.6 -155.9 33C-159 13.5 -155.7 -0.2 -146.5 -5.5C-128.1 -16.1 -93 11.5 -66.5 57.4C-54.1 78.9 -45.6 101 -42.6 119.6C-39.5 139.1 -42.8 152.8 -52 158.1C-54.6 159.7 -57.6 160.4 -60.9 160.4ZM-137.5 -2.2C-139.8 -2.2 -141.9 -1.7 -143.6 -0.7C-150.5 3.3 -152.9 15.2 -150.2 32C-147.3 50 -139.1 71.4 -127 92.3C-103.9 132.3 -76.5 154.7 -60.9 154.7C-58.6 154.7 -56.5 154.2 -54.8 153.2C-47.9 149.2 -45.5 137.3 -48.2 120.5C-51.1 102.5 -59.3 81.1 -71.4 60.2C-94.5 20.2 -121.9 -2.2 -137.5 -2.2Z" />
		</g>
		<g id="Layer">
			<path id="Layer" fill-rule="evenodd" class="shp8" d="M-137.6 160.4C-140.9 160.4 -143.9 159.7 -146.5 158.1C-155.7 152.8 -159 139.1 -155.9 119.6C-152.9 101 -144.4 78.9 -132 57.4C-105.5 11.5 -70.3 -16.1 -52 -5.5C-42.8 -0.2 -39.5 13.5 -42.6 33C-45.6 51.6 -54.1 73.7 -66.5 95.2C-89.1 134.5 -118.1 160.4 -137.6 160.4ZM-60.9 -2.2C-76.5 -2.2 -103.9 20.1 -127 60.2C-139.1 81.1 -147.3 102.5 -150.2 120.5C-152.9 137.3 -150.5 149.2 -143.6 153.2C-130.1 161 -97.9 138.4 -71.3 92.3C-59.2 71.4 -51 50 -48.1 32C-45.4 15.2 -47.8 3.3 -54.7 -0.7C-56.5 -1.7 -58.6 -2.2 -60.9 -2.2Z" />
		</g>
	</g>
	<g id="Layer">
		<path id="Layer" class="shp7" d="M745 -684.6C729.35 -684.6 716.7 -689.43 716.7 -695.4C716.7 -701.37 729.35 -706.2 745 -706.2C760.65 -706.2 773.3 -701.37 773.3 -695.4C773.3 -689.43 760.65 -684.6 745 -684.6Z" />
		<path id="Layer" class="shp7" d="M759.14 -670.86C753.97 -667.87 743.46 -676.41 735.63 -689.97C727.81 -703.52 725.67 -716.89 730.84 -719.87C736.01 -722.86 746.52 -714.32 754.34 -700.77C762.16 -687.21 764.31 -673.84 759.14 -670.86Z" />
		<path id="Layer" class="shp7" d="M754.4 -689.94C746.57 -676.39 736.07 -667.85 730.89 -670.83C725.72 -673.82 727.87 -687.19 735.69 -700.74C743.52 -714.29 754.02 -722.84 759.19 -719.85C764.37 -716.86 762.22 -703.49 754.4 -689.94Z" />
	</g>
	<text id="R" style="transform: matrix(1,0,0,1,-190.889,-485.275)" >
		<tspan x="0" y="0" class="txt9">R</tspan>
	</text>
	<text id="CUSTOM HOOK" style="transform: matrix(1,0,0,1.25,26.253,-648.74)" >
		<tspan x="0" y="0" class="txt10">CUSTOM HOOK</tspan>
	</text>
	<text id="EACT" style="transform: matrix(1,0,0,1.1,28.747,-482.664)" >
		<tspan x="0" y="0" class="txt11">EACT</tspan>
	</text>
	<g id="Layer">
		<path id="Layer" class="shp12" d="M463 -654.4C440 -654.4 421.4 -661.51 421.4 -670.3C421.4 -679.09 440 -686.2 463 -686.2C486 -686.2 504.6 -679.09 504.6 -670.3C504.6 -661.51 486 -654.4 463 -654.4Z" />
		<path id="Layer" class="shp12" d="M483.79 -634.24C476.18 -629.84 460.72 -642.39 449.22 -662.32C437.72 -682.24 434.58 -701.9 442.19 -706.29C449.8 -710.69 465.26 -698.14 476.76 -678.22C488.26 -658.29 491.4 -638.64 483.79 -634.24Z" />
		<path id="Layer" class="shp12" d="M476.81 -662.3C465.3 -642.37 449.85 -629.82 442.24 -634.22C434.62 -638.62 437.76 -658.27 449.27 -678.2C460.77 -698.12 476.22 -710.67 483.84 -706.27C491.45 -701.88 488.31 -682.22 476.81 -662.3Z" />
	</g>
	<g id="Layer">
		<text id="R" style="transform: matrix(1,0,0,1.25,-505.755,-538.965)" >
			<tspan x="0" y="0" class="txt13">R</tspan>
		</text>
		<text id="EACT" style="transform: matrix(1,0,0,1.25,-483.755,-538.965)" >
			<tspan x="0" y="0" class="txt14">EACT</tspan>
		</text>
		<text id="     " style="transform: matrix(1,0,0,1.25,-298.755,-301.09)" >
			<tspan x="0" y="0" class="txt15">     </tspan>
		</text>
		<text id="C" style="transform: matrix(1,0,0,1.25,-476.755,-494.09)" >
			<tspan x="0" y="0" class="txt13">C</tspan>
		</text>
		<text id="USTOM" style="transform: matrix(1,0,0,1.25,-454.055,-494.09)" >
			<tspan x="0" y="0" class="txt14">USTOM</tspan>
		</text>
		<text id="H" style="transform: matrix(1,0,0,1.25,-505.755,-449.09)" >
			<tspan x="0" y="0" class="txt13">H</tspan>
		</text>
		<text id="OOK" style="transform: matrix(1,0,0,1.25,-479.055,-449.09)" >
			<tspan x="0" y="0" class="txt14">OOK</tspan>
		</text>
	</g>
	<g id="Layer">
		<path id="Layer" class="shp16" d="M-554.8 -483.3C-595.11 -483.3 -627.7 -495.73 -627.7 -511.1C-627.7 -526.47 -595.11 -538.9 -554.8 -538.9C-514.49 -538.9 -481.9 -526.47 -481.9 -511.1C-481.9 -495.73 -514.49 -483.3 -554.8 -483.3Z" />
		<path id="Layer" class="shp16" d="M-518.34 -447.98C-531.65 -440.29 -558.7 -462.3 -578.86 -497.21C-599.02 -532.12 -604.55 -566.55 -591.24 -574.24C-577.92 -581.93 -550.87 -559.92 -530.71 -525.01C-510.56 -490.1 -505.02 -455.67 -518.34 -447.98Z" />
		<path id="Layer" class="shp16" d="M-530.72 -497.24C-550.87 -462.33 -577.93 -440.33 -591.24 -448.01C-604.56 -455.7 -599.02 -490.13 -578.87 -525.04C-558.71 -559.96 -531.66 -581.96 -518.34 -574.28C-505.03 -566.59 -510.56 -532.16 -530.72 -497.24Z" />
	</g>
	<g id="Layer">
		<text id="R" style="transform: matrix(1,0,0,1.25,-505.094,-728.763)" >
			<tspan x="0" y="0" class="txt17">R</tspan>
		</text>
		<text id="EACT" style="transform: matrix(1,0,0,1.25,-485.294,-728.763)" >
			<tspan x="0" y="0" class="txt15">EACT</tspan>
		</text>
		<text id="     " style="transform: matrix(1,0,0,1.25,-298.094,-491.638)" >
			<tspan x="0" y="0" class="txt15">     </tspan>
		</text>
		<text id="C" style="transform: matrix(1,0,0,1.25,-476.594,-684.638)" >
			<tspan x="0" y="0" class="txt17">C</tspan>
		</text>
		<text id="USTOM" style="transform: matrix(1,0,0,1.25,-457.794,-684.638)" >
			<tspan x="0" y="0" class="txt15">USTOM</tspan>
		</text>
		<text id="H" style="transform: matrix(1,0,0,1.25,-505.094,-640.638)" >
			<tspan x="0" y="0" class="txt17">H</tspan>
		</text>
		<text id="OOK" style="transform: matrix(1,0,0,1.25,-482.094,-640.638)" >
			<tspan x="0" y="0" class="txt15">OOK</tspan>
		</text>
	</g>
	<g id="Layer">
		<path id="Layer" class="shp16" d="M-553.3 -674.1C-592.89 -674.1 -624.9 -686.3 -624.9 -701.4C-624.9 -716.5 -592.89 -728.7 -553.3 -728.7C-513.71 -728.7 -481.7 -716.5 -481.7 -701.4C-481.7 -686.3 -513.71 -674.1 -553.3 -674.1Z" />
		<path id="Layer" class="shp16" d="M-517.47 -639.37C-530.55 -631.82 -557.12 -653.43 -576.91 -687.72C-596.71 -722.01 -602.15 -755.83 -589.07 -763.38C-576 -770.93 -549.43 -749.31 -529.63 -715.02C-509.83 -680.73 -504.4 -646.92 -517.47 -639.37Z" />
		<path id="Layer" class="shp16" d="M-529.6 -687.74C-549.4 -653.45 -575.97 -631.84 -589.05 -639.39C-602.12 -646.94 -596.68 -680.75 -576.89 -715.04C-557.09 -749.33 -530.52 -770.95 -517.45 -763.4C-504.37 -755.85 -509.81 -722.03 -529.6 -687.74Z" />
	</g>
	<text id="R" style="transform: matrix(1,0,0,1,-926.007,-343.591)" >
		<tspan x="0" y="0" class="txt18">R</tspan>
	</text>
	<text id="CUSTOM HOOK" style="transform: matrix(1,0,0,1.25,-927.697,-304.697)" >
		<tspan x="0" y="0" class="txt19">CUSTOM HOOK</tspan>
	</text>
	<text id="EACT" style="transform: matrix(1,0,0,1.1,-874.4,-343.613)" >
		<tspan x="0" y="0" class="txt20">EACT</tspan>
	</text>
	<g id="Layer">
		<path id="Layer" class="shp16" d="M-979.4 -330.7C-1007.88 -330.7 -1030.9 -339.46 -1030.9 -350.3C-1030.9 -361.14 -1007.88 -369.9 -979.4 -369.9C-950.92 -369.9 -927.9 -361.14 -927.9 -350.3C-927.9 -339.46 -950.92 -330.7 -979.4 -330.7Z" />
		<path id="Layer" class="shp16" d="M-953.61 -305.71C-963 -300.29 -982.1 -315.84 -996.34 -340.5C-1010.58 -365.17 -1014.5 -389.48 -1005.11 -394.9C-995.73 -400.32 -976.63 -384.77 -962.39 -360.1C-948.15 -335.44 -944.23 -311.13 -953.61 -305.71Z" />
		<path id="Layer" class="shp16" d="M-962.4 -340.54C-976.63 -315.88 -995.73 -300.33 -1005.12 -305.75C-1014.51 -311.16 -1010.58 -335.48 -996.34 -360.14C-982.1 -384.81 -963.01 -400.36 -953.62 -394.94C-944.23 -389.52 -948.16 -365.21 -962.4 -340.54Z" />
	</g>
	<text id="R" style="transform: matrix(1,0,0,1,-598.06,-299.932)" >
		<tspan x="0" y="0" class="txt21">R</tspan>
	</text>
	<text id="CUSTOM HOOK" style="transform: matrix(1,0,0,1.25,-514.418,-362.449)" >
		<tspan x="0" y="0" class="txt22">CUSTOM HOOK</tspan>
	</text>
	<text id="EACT" style="transform: matrix(1,0,0,1.1,-516.357,-298.932)" >
		<tspan x="0" y="0" class="txt23">EACT</tspan>
	</text>
	<g id="Layer">
		<text id="R" style="transform: matrix(1,0,0,1,777.985,-677.51)" >
			<tspan x="0" y="0" class="txt24">R</tspan>
		</text>
		<text id="eact." style="transform: matrix(1,0,0,1,817.485,-677.51)" >
			<tspan x="0" y="0" class="txt25">eact.</tspan>
		</text>
		<text id="C" style="transform: matrix(1,0,0,1,926.685,-677.51)" >
			<tspan x="0" y="0" class="txt24">C</tspan>
		</text>
		<text id="ustom." style="transform: matrix(1,0,0,1,967.285,-677.51)" >
			<tspan x="0" y="0" class="txt25">ustom.</tspan>
		</text>
		<text id="H" style="transform: matrix(1,0,0,1,1132.885,-677.51)" >
			<tspan x="0" y="0" class="txt24">H</tspan>
		</text>
		<text id="ook" style="transform: matrix(1,0,0,1,1179.885,-677.51)" >
			<tspan x="0" y="0" class="txt25">ook</tspan>
		</text>
	</g>
	<g id="Layer">
		<text id="C" style="transform: matrix(1,0,0,1,810.985,-407.523)" >
			<tspan x="0" y="0" class="txt24">C</tspan>
		</text>
		<text id="ustom " style="transform: matrix(1,0,0,1,851.585,-407.523)" >
			<tspan x="0" y="0" class="txt25">ustom </tspan>
		</text>
		<text id="H" style="transform: matrix(1,0,0,1,1017.085,-407.523)" >
			<tspan x="0" y="0" class="txt24">H</tspan>
		</text>
		<text id="ooks" style="transform: matrix(1,0,0,1,1064.085,-407.523)" >
			<tspan x="0" y="0" class="txt25">ooks</tspan>
		</text>
	</g>
	<g id="Layer">
		<text id="R" style="transform: matrix(1,0,0,1,777.985,-583.014)" >
			<tspan x="0" y="0" class="txt24">R</tspan>
		</text>
		<text id="eact" style="transform: matrix(1,0,0,1,817.485,-583.014)" >
			<tspan x="0" y="0" class="txt25">eact</tspan>
		</text>
		<text id="C" style="transform: matrix(1,0,0,1,913.085,-583.014)" >
			<tspan x="0" y="0" class="txt24">C</tspan>
		</text>
		<text id="ustom" style="transform: matrix(1,0,0,1,953.585,-583.014)" >
			<tspan x="0" y="0" class="txt25">ustom</tspan>
		</text>
		<text id="H" style="transform: matrix(1,0,0,1,1105.485,-583.014)" >
			<tspan x="0" y="0" class="txt24">H</tspan>
		</text>
		<text id="ook" style="transform: matrix(1,0,0,1,1152.485,-583.014)" >
			<tspan x="0" y="0" class="txt25">ook</tspan>
		</text>
	</g>
	<g id="Layer">
		<text id="R" style="transform: matrix(1,0,0,1,777.985,-497.519)" >
			<tspan x="0" y="0" class="txt26">R</tspan>
		</text>
		<text id="eact Custom " style="transform: matrix(1,0,0,1,817.485,-497.519)" >
			<tspan x="0" y="0" class="txt25">eact Custom </tspan>
		</text>
		<text id="H" style="transform: matrix(1,0,0,1,1132.085,-497.519)" >
			<tspan x="0" y="0" class="txt24">H</tspan>
		</text>
		<text id="ook" style="transform: matrix(1,0,0,1,1179.085,-497.519)" >
			<tspan x="0" y="0" class="txt25">ook</tspan>
		</text>
	</g>
	<g id="Layer">
		<path id="Layer" fill-rule="evenodd" class="shp27" d="M136.3 153.7C133.9 153.7 131.4 153.7 128.8 153.5C110.1 152.6 101.2 147.5 91.3 133.2C84 122.8 76.3 109.4 69.9 98.6C65.9 92.2 62.2 89.6 51.6 89.6L45.2 89.6L45.2 124.2C45.2 142.7 47.2 144.3 64.6 145.6L64.6 152L5.1 152L5.1 145.6C23 144.3 24.9 142.7 24.9 124.2L24.9 36.2C24.9 17.7 22.9 16.6 5.9 15L5.9 8.6L61.9 8.6C78.7 8.6 89.5 10.6 97.8 16.3C106.8 22 112.6 31.7 112.6 45.2C112.6 64.2 100.7 75.6 84.6 82.7C88.3 89.8 97.4 104.5 104 114.4C111.9 126.1 116.6 132 121.6 137.5C127.3 143.7 132.2 146.3 137 147.6L136.3 153.7ZM54.9 82.1C65.7 82.1 73 80.3 78.5 75.9C86.7 69.3 90.2 60.5 90.2 48.8C90.2 25 75 16.2 59.1 16.2C52.7 16.2 49.2 17.1 47.4 18.4C45.9 19.7 45.2 22.1 45.2 27.9L45.2 82.1L54.9 82.1Z" />
		<path id="Layer" class="shp27" d="M275.9 115.4C272.8 125.5 267.3 142.1 263.3 149.4C257.1 150.9 238.4 155.4 222.7 155.4C167.1 155.4 142.9 117.3 142.9 82.4C142.9 36.1 178.4 5.5 228.4 5.5C246.3 5.5 261.5 10.4 267.4 11.5C269.2 23.8 270.7 33.1 272 45.2L265.2 46.7C259.2 22.9 245.4 13.8 222.6 13.8C186.7 13.8 167.5 44.7 167.5 78C167.5 119 191.1 147 224.2 147C246 147 257.9 134.9 269.2 113L275.9 115.4Z" />
		<path id="Layer" fill-rule="evenodd" class="shp27" d="M438.1 78.6C438.1 126.2 404.6 155.3 364 155.3C323.4 155.3 291.7 124 291.7 81.7C291.7 42.5 319.5 5.4 366.4 5.4C404.6 5.4 438.1 34.5 438.1 78.6ZM316.4 75.9C316.4 116.5 338 147.1 368.7 147.1C392.5 147.1 413.5 126.6 413.5 84.5C413.5 38.4 390.6 13.5 362.1 13.5C338 13.5 316.4 35.1 316.4 75.9Z" />
		<path id="Layer" class="shp27" d="M606.8 15.1C588.9 16.6 587.2 17.7 587.2 36.3L587.2 124.5C587.2 143 589 144.1 606.8 145.7L606.8 152.1L546.2 152.1L546.2 145.7C564.7 144.2 566.5 143.1 566.5 124.5L566.5 81L494.2 81L494.2 124.4C494.2 142.9 496 144 513.6 145.6L513.6 152L454.3 152L454.3 145.6C471.7 144.1 473.5 143 473.5 124.4L473.5 36.2C473.5 17.7 471.7 16.6 453.7 15L453.7 8.6L512.6 8.6L512.6 15C496.1 16.5 494.3 17.6 494.3 36.2L494.3 71.3L566.6 71.3L566.6 36.2C566.6 17.9 564.8 16.6 547.9 15L547.9 8.6L607 8.6L607 15.1L606.8 15.1Z" />
	</g>
</svg>